<svg xmlns="http://www.w3.org/2000/svg" viewBox="0 0 64 64">
  <rect width="64" height="64" rx="12" fill="#1f3dbd"/>
  <path d="M32 12c11.046 0 20 8.954 20 20s-8.954 20-20 20-20-8.954-20-20 8.954-20 20-20Zm0 4c-3.286 0-6.9 5.67-7.784 14h15.568C38.9 21.67 35.286 16 32 16Zm-8.146 18c.286 3.358 1.208 6.524 2.628 9.058C27.9 45.77 29.91 48 32 48s4.1-2.23 5.518-4.942c1.42-2.534 2.342-5.7 2.628-9.058H23.854Zm-7.842 0c.87 7.766 7.048 13.94 14.812 14.812-3.25-3.486-5.398-8.914-5.97-14.812H16.012Zm23.134 0c-.572 5.898-2.72 11.326-5.97 14.812 7.764-.872 13.942-7.046 14.812-14.812H39.146ZM24.854 30c.572-5.898 2.72-11.326 5.97-14.812-7.764.872-13.942 7.046-14.812 14.812h8.842Zm14.292 0c-.884-8.33-4.498-14-7.784-14s-6.9 5.67-7.784 14h15.568Zm8.842 0c-.87-7.766-7.048-13.94-14.812-14.812 3.25 3.486 5.398 8.914 5.97 14.812h8.842Z" fill="#fff"/>
</svg>
