<svg xmlns="http://www.w3.org/2000/svg" width="1200" height="630" viewBox="0 0 1200 630">
  <rect width="1200" height="630" fill="#0f172a"/>
  <rect x="72" y="72" width="1056" height="486" rx="28" fill="#1e293b"/>
  <circle cx="250" cy="315" r="116" fill="#1d4ed8"/>
  <path d="M250 219c53.019 0 96 42.981 96 96s-42.981 96-96 96-96-42.981-96-96 42.981-96 96-96Zm0 18c-19.342 0-40.555 33.403-45.756 78h91.512C290.555 270.403 269.342 237 250 237Zm-47.897 96c1.68 20.621 7.109 40.044 15.469 55.607C225.913 405.239 237.742 419 250 419s24.087-13.761 32.428-30.393c8.36-15.563 13.789-34.986 15.469-55.607H202.103Zm-46.139 0c5.121 47.679 43.357 85.911 91.036 91.036-19.955-21.423-33.142-54.772-36.66-91.036h-54.376Zm141.696 0c-3.518 36.264-16.705 69.613-36.66 91.036 47.679-5.125 85.915-43.357 91.036-91.036H297.66ZM210.34 297c3.518-36.264 16.705-69.613 36.66-91.036-47.679 5.125-85.915 43.357-91.036 91.036h54.376Zm87.557 0c-5.201-44.597-26.414-78-45.756-78s-40.555 33.403-45.756 78h91.512Zm54.139 0c-5.121-47.679-43.357-85.911-91.036-91.036 19.955 21.423 33.142 54.772 36.66 91.036h54.376Z" fill="#fff"/>
  <text x="420" y="270" fill="#fff" font-family="Inter, Arial, sans-serif" font-size="72" font-weight="700">VisaPath</text>
  <text x="420" y="350" fill="#cbd5e1" font-family="Inter, Arial, sans-serif" font-size="34">Visa requirements, processing times, and embassy guidance</text>
  <text x="420" y="410" fill="#93c5fd" font-family="Inter, Arial, sans-serif" font-size="28">Production-ready visa content for search and discovery</text>
</svg>
